<svg xmlns="http://www.w3.org/2000/svg" xmlns:xlink="http://www.w3.org/1999/xlink" viewBox="0 0 251.04 251.02"><defs><style>.cls-1{isolation:isolate;}.cls-2{fill:#9a4d3b;}.cls-3{fill:#c42a2d;}.cls-4{fill:#f1383b;}.cls-5{fill:#931200;}.cls-6{fill:#ff7041;}.cls-7{fill:#b71200;}.cls-8{fill:#ff614c;}.cls-9{fill:#7b3929;}.cls-10{fill:#9c4435;}.cls-11{fill:#551c14;}.cls-12{fill:#6c2a22;}.cls-13{fill:#fcbfab;}.cls-14,.cls-17{fill:#fff6d2;}.cls-15{fill:#f78b7f;}.cls-16{fill:#c74a4c;}.cls-17{opacity:0.5;}.cls-18{fill:#552351;}.cls-19{fill:#d44d57;}.cls-20{fill:#282d75;}.cls-21{fill:#134abb;}.cls-22,.cls-23,.cls-26,.cls-27,.cls-28,.cls-29,.cls-32,.cls-33,.cls-34,.cls-35{mix-blend-mode:overlay;}.cls-22{fill:url(#Gradiente_sem_nome_22);}.cls-23{fill:url(#Gradiente_sem_nome_22-2);}.cls-24{fill:#13cdff;}.cls-25{fill:#139bff;}.cls-26{fill:url(#Gradiente_sem_nome_6);}.cls-27{fill:url(#Gradiente_sem_nome_5);}.cls-28{fill:url(#Gradiente_sem_nome_22-3);}.cls-29{fill:url(#Gradiente_sem_nome_22-4);}.cls-30{fill:#13a7ff;}.cls-31{fill:#13ccff;}.cls-32{fill:url(#Gradiente_sem_nome_5-2);}.cls-33{fill:url(#Gradiente_sem_nome_5-3);}.cls-34{fill:url(#Gradiente_sem_nome_21);}.cls-35{fill:url(#Gradiente_sem_nome_20);}.cls-36{fill:#685e6f;}.cls-37{fill:#52475a;}.cls-38{fill:#3b2438;}.cls-39{fill:#373447;}.cls-40{fill:#3b3b48;}.cls-41{fill:#2b2b39;}.cls-42{fill:#474753;}.cls-43{fill:#555560;}.cls-44{fill:#f6dfc6;}.cls-45{fill:#fffddf;}.cls-46{fill:#d6886b;}.cls-47{fill:#fab5a0;}.cls-48{fill:#ffc6a7;}.cls-49{fill:#7e3e2a;}.cls-50{fill:#772c1f;}.cls-51{fill:#fff;}.cls-52{fill:url(#Gradiente_sem_nome_18);}.cls-53{fill:#3f3f5a;}.cls-54{fill:#2c2c4a;}.cls-55{fill:#8c8aa8;}</style><linearGradient id="Gradiente_sem_nome_22" x1="38.75" y1="147.06" x2="51.25" y2="104.93" gradientUnits="userSpaceOnUse"><stop offset="0" stop-color="#fff"/><stop offset="0.07" stop-color="#fff" stop-opacity="0.97"/><stop offset="0.18" stop-color="#fff" stop-opacity="0.88"/><stop offset="0.32" stop-color="#fff" stop-opacity="0.75"/><stop offset="0.48" stop-color="#fff" stop-opacity="0.55"/><stop offset="0.65" stop-color="#fff" stop-opacity="0.31"/><stop offset="0.84" stop-color="#fff" stop-opacity="0.01"/><stop offset="0.84" stop-color="#fff" stop-opacity="0"/></linearGradient><linearGradient id="Gradiente_sem_nome_22-2" x1="14.62" y1="160.3" x2="46.23" y2="131.94" xlink:href="#Gradiente_sem_nome_22"/><linearGradient id="Gradiente_sem_nome_6" x1="39.58" y1="112.05" x2="39.58" y2="147.34" gradientUnits="userSpaceOnUse"><stop offset="0.24" stop-color="#fff"/><stop offset="0.29" stop-color="#fff" stop-opacity="0.97"/><stop offset="0.37" stop-color="#fff" stop-opacity="0.88"/><stop offset="0.47" stop-color="#fff" stop-opacity="0.75"/><stop offset="0.58" stop-color="#fff" stop-opacity="0.55"/><stop offset="0.71" stop-color="#fff" stop-opacity="0.31"/><stop offset="0.84" stop-color="#fff" stop-opacity="0.01"/><stop offset="0.84" stop-color="#fff" stop-opacity="0"/></linearGradient><linearGradient id="Gradiente_sem_nome_5" x1="108.82" y1="112.05" x2="108.82" y2="147.34" gradientUnits="userSpaceOnUse"><stop offset="0.3" stop-color="#fff"/><stop offset="0.35" stop-color="#fff" stop-opacity="0.97"/><stop offset="0.42" stop-color="#fff" stop-opacity="0.88"/><stop offset="0.51" stop-color="#fff" stop-opacity="0.75"/><stop offset="0.61" stop-color="#fff" stop-opacity="0.55"/><stop offset="0.72" stop-color="#fff" stop-opacity="0.31"/><stop offset="0.84" stop-color="#fff" stop-opacity="0.01"/><stop offset="0.84" stop-color="#fff" stop-opacity="0"/></linearGradient><linearGradient id="Gradiente_sem_nome_22-3" x1="101.92" y1="147.74" x2="132.29" y2="108.88" xlink:href="#Gradiente_sem_nome_22"/><linearGradient id="Gradiente_sem_nome_22-4" x1="78.87" y1="166.87" x2="116.99" y2="129.68" xlink:href="#Gradiente_sem_nome_22"/><linearGradient id="Gradiente_sem_nome_5-2" x1="125.28" y1="176.27" x2="89.74" y2="124.36" xlink:href="#Gradiente_sem_nome_5"/><linearGradient id="Gradiente_sem_nome_5-3" x1="134.13" y1="170.21" x2="98.59" y2="118.31" xlink:href="#Gradiente_sem_nome_5"/><linearGradient id="Gradiente_sem_nome_21" x1="52.32" y1="169.31" x2="17.22" y2="121.07" gradientUnits="userSpaceOnUse"><stop offset="0.13" stop-color="#fff"/><stop offset="0.18" stop-color="#fff" stop-opacity="0.98"/><stop offset="0.25" stop-color="#fff" stop-opacity="0.92"/><stop offset="0.33" stop-color="#fff" stop-opacity="0.82"/><stop offset="0.4" stop-color="#fff" stop-opacity="0.68"/><stop offset="0.49" stop-color="#fff" stop-opacity="0.51"/><stop offset="0.57" stop-color="#fff" stop-opacity="0.29"/><stop offset="0.66" stop-color="#fff" stop-opacity="0.04"/><stop offset="0.67" stop-color="#fff" stop-opacity="0"/></linearGradient><linearGradient id="Gradiente_sem_nome_20" x1="61.14" y1="162.89" x2="26.04" y2="114.65" gradientUnits="userSpaceOnUse"><stop offset="0.1" stop-color="#fff"/><stop offset="0.18" stop-color="#fff" stop-opacity="0.91"/><stop offset="0.35" stop-color="#fff" stop-opacity="0.67"/><stop offset="0.59" stop-color="#fff" stop-opacity="0.29"/><stop offset="0.77" stop-color="#fff" stop-opacity="0"/></linearGradient><linearGradient id="Gradiente_sem_nome_18" x1="138.59" y1="41.31" x2="144.21" y2="102.06" gradientUnits="userSpaceOnUse"><stop offset="0"/><stop offset="0.02" stop-opacity="0.93"/><stop offset="0.68" stop-opacity="0"/></linearGradient></defs><g class="cls-1"><g id="Camada_1" data-name="Camada 1"><path class="cls-2" d="M28.58,100.18,27.71,108a2.19,2.19,0,0,0,2,2.42l9.77.53c4.39.23,8.47.69,10.94,1a2.17,2.17,0,0,0,2.45-2.16v-7.71a2.17,2.17,0,0,0-1.84-2.15,149.14,149.14,0,0,0-20.28-1.69A2.19,2.19,0,0,0,28.58,100.18Z"/><path class="cls-3" d="M156,94.09s26.79-15.31,67.63-27.43c0,0,4.46,16,1.91,32.54l-68.9,8.93a7.82,7.82,0,0,1-7-5.11C147.65,97.92,156,94.09,156,94.09Z"/><path class="cls-4" d="M223.58,66.66C182.74,78.78,156,94.09,156,94.09s-7.53,3.48-6.58,8.22a19.48,19.48,0,0,1,2.11-1.2s26.8-15.31,67.63-27.43a89.34,89.34,0,0,1,2.58,26l3.8-.49C228,82.61,223.58,66.66,223.58,66.66Z"/><path class="cls-5" d="M156.91,95.11c3.72-2.12,7.58-4,11.43-5.87,10.23-4.93,20.43-9.2,31.07-13.15q12.19-4.52,24.67-8.22l-2.35-1.34a63.53,63.53,0,0,1,1.33,6.24,87.61,87.61,0,0,1,1.3,14.85,67.47,67.47,0,0,1-.72,10.43l1.85-1.41-10,1.3-22.39,2.9-23.34,3-12.85,1.67a5.61,5.61,0,0,1-.82,0c-.25,0,.27,0,.28,0a1.26,1.26,0,0,0-.28,0l-.47-.1-.53-.14c-.13,0-.9-.36-.45-.15a9.29,9.29,0,0,1-1.24-.68l-.28-.2c.33.25-.13-.13-.15-.15a8.2,8.2,0,0,1-.65-.67,5.52,5.52,0,0,1-.41-.6c-.13-.22-.34-.61-.4-.74a4.34,4.34,0,0,1-.24-.72c0-.08-.08-.6,0-.14,0-.15,0-.31,0-.47s0-.21,0-.31c0,.43,0,.1,0,0s.12-.45.19-.67c-.13.43.14-.26.21-.38a8.21,8.21,0,0,1,.47-.73c.19-.25-.29.33.05,0l.21-.24c.18-.2.37-.39.56-.58s.35-.33.53-.48.76-.6.4-.33A20.66,20.66,0,0,1,156,95.57c.29-.16.59-.32.89-.46a1.93,1.93,0,0,0,.69-2.62A2,2,0,0,0,155,91.8c-3.14,1.46-6.83,4.24-7.49,7.85-.93,5.08,4.08,9.49,8.85,9.74a14.63,14.63,0,0,0,2.54-.28l7.14-.93,22.81-3,23.81-3.09,12.66-1.64.19,0c.76-.1,1.71-.52,1.85-1.4A85.74,85.74,0,0,0,226,67.71c-.17-.74-.34-1.47-.54-2.2a1.93,1.93,0,0,0-2.35-1.33,394,394,0,0,0-41,14.7c-7.9,3.34-15.71,6.92-23.32,10.89-1.26.66-2.52,1.33-3.76,2C152.84,93,154.77,96.33,156.91,95.11Z"/><path class="cls-4" d="M161.05,115.78s49.77,5.75,77.84,14L249.1,99.2s-44.53-5.74-96,7.33C153.14,106.53,145.74,114.51,161.05,115.78Z"/><path class="cls-6" d="M153.14,106.53a6.91,6.91,0,0,0-1.78,4.18c48.61-11,89.44-5.77,89.44-5.77L233,128.21c2,.52,4,1.06,5.85,1.61L249.1,99.2S204.57,93.46,153.14,106.53Z"/><path class="cls-7" d="M161.05,117.7l5.19.63,5.81.76.52.07.76.11,1.91.26,3.9.55c12.87,1.84,25.7,3.92,38.43,6.54,7,1.44,14,3,20.81,5a2,2,0,0,0,2.35-1.34L244.18,120l5.49-16.49,1.27-3.8a2,2,0,0,0-1.84-2.43c-2.86-.36-5.75-.56-8.62-.75-7.65-.48-15.32-.6-23-.44a300.26,300.26,0,0,0-33.22,2.55c-6.52.87-13,1.94-19.45,3.26q-5,1-10,2.25c-1,.23-2.33.34-3,1.08a8.62,8.62,0,0,0-2.21,6.32c.57,3.43,4.34,4.94,7.33,5.57a34.72,34.72,0,0,0,4.18.58,1.92,1.92,0,1,0,0-3.83,24,24,0,0,1-3.37-.49c-.45-.1-.89-.21-1.33-.34l-.66-.22c-.13,0-.67-.28-.29-.1a9.1,9.1,0,0,1-.88-.45c-.15-.09-.28-.2-.43-.28s.26.26-.07,0a6.29,6.29,0,0,0-.51-.52c.35.25.15.23,0,0a3.14,3.14,0,0,0-.18-.31c-.17-.23.12.45,0,.1,0-.1-.06-.19-.08-.28a2.55,2.55,0,0,0-.07-.32c.11,0,0,.58,0,.11a5.06,5.06,0,0,0,0-.55c0-.23-.12.53,0,.12,0-.1,0-.2.07-.3a5,5,0,0,1,.16-.51c.12-.37.12,0-.06.11.05,0,.1-.22.13-.26a9.25,9.25,0,0,1,.49-.87l.27-.39c.27-.39-.34.39-.05.06.07-.08.13-.16.21-.24l-.85.49a281.3,281.3,0,0,1,54.52-8.12,275.72,275.72,0,0,1,35,.29c2,.15,4,.31,6,.56l-1.85-2.42L243.81,109l-5.5,16.48L237,129.31,239.4,128c-12.65-3.72-25.69-6.16-38.67-8.37-11-1.89-22.15-3.51-33.27-4.94-2.14-.27-4.27-.54-6.41-.79a1.92,1.92,0,0,0-1.91,1.91A2,2,0,0,0,161.05,117.7Z"/><path class="cls-4" d="M48.13,188.52s-27.44,3.82-32.54,21.69c-3.88,13.58,8.93,23.6,14.67,24.88l24.29-40.15Z"/><path class="cls-8" d="M20.06,211.48c4.12-14.43,22.81-19.7,29.84-21.19l-1.77-1.77s-27.44,3.82-32.54,21.69c-3.88,13.58,8.93,23.6,14.67,24.88l.32-.53C24.5,230.89,17,222.32,20.06,211.48Z"/><path class="cls-7" d="M47.62,186.67A51.64,51.64,0,0,0,41,188.13a57.34,57.34,0,0,0-13.78,5.67c-4.84,2.85-9.31,6.75-11.88,11.82a21.41,21.41,0,0,0-2.39,10,20.85,20.85,0,0,0,2.87,9.87,26.88,26.88,0,0,0,7,7.82,18.45,18.45,0,0,0,6.92,3.58,2,2,0,0,0,2.16-.88l8.25-13.63,13-21.56,3-5a1.92,1.92,0,0,0-.3-2.31l-6.42-6.43a1.92,1.92,0,0,0-2.71,2.71l6.43,6.42L52.9,194l-8.25,13.64-13,21.56-3,5,2.16-.88a8.81,8.81,0,0,1-1.21-.36c-.13,0-.81-.34-.29-.1-.26-.12-.53-.24-.78-.37a22,22,0,0,1-3-1.86c-.1-.08-.71-.54-.42-.31l-.8-.65c-.54-.47-1.07-1-1.57-1.46a21,21,0,0,1-2.58-3.06c-.41-.59-.78-1.19-1.13-1.81s-.77-1.51-.9-1.85a16.94,16.94,0,0,1-.7-2.08,19.08,19.08,0,0,1-.44-2.1,16.49,16.49,0,0,1,.11-4.68,18.75,18.75,0,0,1,.58-2.35c.11-.34.22-.68.35-1l.16-.42a2.44,2.44,0,0,1,.1-.24c-.08.19-.08.18,0,0a25.24,25.24,0,0,1,10.24-11c1.09-.67,2.21-1.29,3.35-1.87.53-.26,1.07-.52,1.62-.77l.73-.33.44-.19c.2-.09.2-.09,0,0l.29-.12q3.11-1.26,6.31-2.2a52.8,52.8,0,0,1,7.47-1.7A1.92,1.92,0,0,0,50,188,2,2,0,0,0,47.62,186.67Z"/><path class="cls-9" d="M175.73,126c-1.28-20.41-17.87-31.26-17.87-31.26,3.19-2.55,7-8.93,7-8.93a54.39,54.39,0,0,0-11.48,0l-51.68-7L38.56,62.19C25.16,59,17.5,59,17.5,59c2.56,10.21,9.57,19.14,9.57,19.14C18.78,78.78,6,75,6,75A33.75,33.75,0,0,0,18.75,90C15,93,4.52,103.46,3.47,126a72.23,72.23,0,0,0,12.36-5.08c-1.45,5.91-2.44,13-1.52,19.76,1.92,14,8.3,20.41,8.3,20.41s5-10.83,5.06-28.7a52.32,52.32,0,0,0-2.52-16.95c2.1-1.42,4.24-3,6.39-4.75a17.23,17.23,0,0,0,5.12-6.51C62.42,129.4,123.43,188,135.1,188.26c14.89.38,19.57-6.76,19.57-6.76A19,19,0,0,0,170,187.24C163,173.84,177,146.41,175.73,126Z"/><path class="cls-10" d="M18.37,90.35C14.54,93.51,4.27,104,3.23,126.27A66,66,0,0,0,12,122.91a78.68,78.68,0,0,1,1.41-12c1.33-6.36,3.49-14.77,8-19.44l-.26-.34-1.65-.94Z"/><path class="cls-11" d="M177.64,126a44.41,44.41,0,0,0-16.36-31.06c-.79-.64-1.6-1.29-2.45-1.85l.39,3a28.48,28.48,0,0,0,4.94-5.72c.83-1.17,1.63-2.36,2.37-3.6a1.94,1.94,0,0,0-1.65-2.88,53.41,53.41,0,0,0-12,.07h1l-7.86-1.06-17.3-2.35-17.7-2.41c-2.91-.39-5.89-.64-8.77-1.19-1.89-.36-3.76-1-5.61-1.46L81.91,71.6,63.54,66.78,47.45,62.55c-2.73-.72-5.46-1.45-8.2-2.15a102.92,102.92,0,0,0-20.56-3.27c-.4,0-.79,0-1.19,0a1.93,1.93,0,0,0-1.84,2.42,55.07,55.07,0,0,0,10.06,20l1.35-3.27a47.87,47.87,0,0,1-13.23-1.31c-2.46-.51-4.91-1.09-7.31-1.81-1.73-.52-2.82,1.38-2.16,2.81A36.27,36.27,0,0,0,17.78,91.61l-.38-3c-7.2,5.86-11.67,14.92-13.9,23.76A70.44,70.44,0,0,0,1.55,126,1.94,1.94,0,0,0,4,127.84a69.09,69.09,0,0,0,12.81-5.28L14,120.4c-2,8.21-2.6,16.59-.78,24.9A40.88,40.88,0,0,0,19.33,160a19.43,19.43,0,0,0,1.92,2.42,1.93,1.93,0,0,0,3-.39,50.33,50.33,0,0,0,3.08-9.64,84.21,84.21,0,0,0,2.08-24.81A51.62,51.62,0,0,0,27,114.92l-.88,2.16c4.66-3.15,9.88-6.62,12.2-12l-3,.39q11.45,11.2,23,22.24,13.83,13.17,28,26c8.64,7.79,17.37,15.5,26.46,22.76,3.57,2.85,7.18,5.64,10.95,8.21a43.28,43.28,0,0,0,8.18,4.66,9.9,9.9,0,0,0,3.07.77,33.63,33.63,0,0,0,10.61-1.12c3.7-1,7.66-2.82,10.17-5.83a9,9,0,0,0,.59-.76l-3,.39c4.39,4.33,10.92,7.18,17.17,6.24,1.3-.2,1.65-1.84,1.15-2.82-.08-.15-.16-.3-.23-.45l-.18-.39a3.45,3.45,0,0,0-.13-.33c-.07-.19-.14-.38-.2-.57a18.87,18.87,0,0,1-.58-2.24,12.86,12.86,0,0,1-.29-2.08c-.07-.85-.11-1.71-.11-2.57a59.31,59.31,0,0,1,1.24-11.22c1.63-8.69,4.05-17.21,5.47-25.95a66.27,66.27,0,0,0,1-14.48,1.92,1.92,0,0,0-3.83,0c.52,8.7-1.44,17.3-3.36,25.74-1.87,8.25-4.2,16.68-4.35,25.2a23.55,23.55,0,0,0,2.23,11.28l1.15-2.82c.73-.11.41,0,.09,0l-1,0c-.49,0-1,0-1.46,0l-1-.1c.29,0,0,0-.1,0l-.55-.1a18,18,0,0,1-9.44-5,2,2,0,0,0-3,.39.42.42,0,0,0-.08.12c-.12.24.39-.46.17-.23l-.17.21a14.14,14.14,0,0,1-1.09,1.1l-.38.32c-.11.09-.61.45-.12.1-.37.27-.74.54-1.13.78s-.86.53-1.31.76q-.39.21-.78.39l-.3.14-.34.15a27.76,27.76,0,0,1-8.88,1.92c-1,.06-2,.08-3.05.06l-.65,0c-.37,0,0,0,.17,0-.4-.13-.85-.17-1.26-.31-.23-.07-.45-.15-.67-.24l-.35-.14c.67.26.11,0-.06,0-.58-.27-1.16-.56-1.72-.86-1.37-.74-2.7-1.57-4-2.42-1.62-1.07-3.21-2.19-4.77-3.34-.87-.63-1.72-1.27-2.57-1.92l-.63-.48c-.1-.07-.71-.54-.39-.29l-1.43-1.12c-8.87-7-17.37-14.42-25.76-22-9.37-8.4-18.58-17-27.71-25.63q-11.82-11.2-23.45-22.58L38,102.82a1.93,1.93,0,0,0-3,.38C32.93,108,28.33,111,24.18,113.77a2,2,0,0,0-.88,2.16c2.57,7.65,2.8,15.8,2.15,23.77a74.29,74.29,0,0,1-3.55,17.89c-.25.73-.51,1.45-.79,2.16l-.14.33c-.13.33.3-.45.08-.17a.5.5,0,0,0-.09.21l3-.39c-.12-.12-.23-.25-.35-.38l-.38-.46c-.09-.11-.41-.55,0,0l-.3-.39a31.46,31.46,0,0,1-2.87-4.84,30.33,30.33,0,0,1-1.41-3.32,43,43,0,0,1-1.4-4.57,43.7,43.7,0,0,1-1.37-11.27,58.88,58.88,0,0,1,1.8-13.07,1.93,1.93,0,0,0-2.81-2.16A64.89,64.89,0,0,1,3,124.15L5.38,126a59.52,59.52,0,0,1,4.43-20.42,44.61,44.61,0,0,1,3.62-6.7c.29-.45.59-.89.9-1.33l.45-.62.27-.35c.23-.32-.21.26,0-.07.58-.73,1.17-1.44,1.79-2.12a31,31,0,0,1,3.21-3.07,1.92,1.92,0,0,0-.38-3,27.91,27.91,0,0,1-6.1-5.14A35.81,35.81,0,0,1,7.67,74L5.51,76.8c2.47.74,5,1.33,7.53,1.86a52.23,52.23,0,0,0,14,1.4,2,2,0,0,0,1.36-3.27c-.15-.18.38.51.19.24l-.25-.32c-.29-.39-.58-.8-.86-1.2-.92-1.32-1.79-2.69-2.61-4.08a49.26,49.26,0,0,1-5.55-12.94L17.5,60.92a47.41,47.41,0,0,1,5.33.38c2.13.23,3.93.49,6.15.87,2.93.5,5.84,1.11,8.74,1.79,2.41.57,4.79,1.25,7.19,1.88l16.4,4.31,19.35,5.08,15.43,4a52.19,52.19,0,0,0,5.37,1.38c3.6.55,7.23,1,10.84,1.47l19.24,2.62L148.31,87l4.14.57c.44.06,2.22.06,1,.12,1.15,0,2.3-.21,3.45-.25a66.43,66.43,0,0,1,8,.25l-1.65-2.88c-1.86,3.09-3.92,6.26-6.72,8.55a1.92,1.92,0,0,0,.39,3l.42.3.51.37.28.22c-.58-.44-.07-.06.06,0a42.9,42.9,0,0,1,3.94,3.56,42.43,42.43,0,0,1,4.68,5.61,41,41,0,0,1,4.33,7.86A37.6,37.6,0,0,1,173.81,126a2,2,0,0,0,1.92,1.92A1.93,1.93,0,0,0,177.64,126Z"/><path class="cls-9" d="M25.16,92.82S13,90.26,6,75c0,0,12.76,3.83,21.05,3.19,0,0-7-8.93-9.57-19.14,0,0,7.66,0,21.06,3.19l63.16,16.59,51.68,7a54.39,54.39,0,0,1,11.48,0s-3.83,6.38-7,8.93c0,0,16.59,10.85,17.87,31.26S163,173.84,170,187.24a19,19,0,0,1-15.31-5.74s-4.68,7.14-19.57,6.76S25.16,92.82,25.16,92.82Z"/><path class="cls-10" d="M18.75,90A33.75,33.75,0,0,1,6,75s12.76,3.83,21.05,3.19c0,0-7-8.93-9.57-19.14a83.25,83.25,0,0,1,13.56,1.61,62.58,62.58,0,0,0-5.95,2.87c1.64,4.14,3.56,9.24,10.58,17.53-5.14.38-13.4.64-20.68-1.27,1.44,5,3.42,7.45,6.64,11.48"/><path class="cls-4" d="M125,188.52s27.44,3.82,32.54,21.69c3.88,13.58-8.93,23.6-14.67,24.88l-24.29-40.15Z"/><path class="cls-8" d="M153.08,211.48c-4.12-14.43-22.81-19.7-29.84-21.19l1.77-1.77s27.44,3.82,32.54,21.69c3.88,13.58-8.93,23.6-14.67,24.88l-.32-.53C148.64,230.89,156.18,222.32,153.08,211.48Z"/><path class="cls-12" d="M160.79,176.42c-5.79-11-.33-24.18-1.15-36.61s1.91-24.24-10.21-37c-5.69-6-19.48-8.26-27.71-9a32.33,32.33,0,0,0-23.12,7.07c-8.42,6.86-12.83,17.64-14.46,28.38a97.72,97.72,0,0,0-.77,19.27c22.82,20.83,45.14,39.57,51.73,39.74,14.89.38,19.57-6.76,19.57-6.76a19.33,19.33,0,0,0,14.58,5.81A39.82,39.82,0,0,1,160.79,176.42Z"/><path class="cls-7" d="M124.5,190.36a51.66,51.66,0,0,1,6.14,1.33q3.08.83,6.05,1.95l1.59.62c.06,0,.54.24.12.06l.44.18.88.4c1.15.52,2.28,1.09,3.38,1.7a38.44,38.44,0,0,1,3.29,2.05,22.23,22.23,0,0,1,2.82,2.21,27,27,0,0,1,2.79,2.87l.27.33s.36.48.12.15l.6.83c.39.57.75,1.15,1.08,1.75s.59,1.13.86,1.71-.08-.2,0,.11c.05.14.11.27.16.41.15.39.28.78.41,1.18a15.84,15.84,0,0,1,.8,4.71,16.5,16.5,0,0,1-2.15,8.35,22.34,22.34,0,0,1-1.35,2.12l-.33.46c-.26.34.07-.08-.17.22s-.56.67-.85,1a26.08,26.08,0,0,1-3.38,3.18c.28-.22,0,0-.08.06l-.47.34q-.45.33-.93.63c-.54.35-1.1.68-1.67,1-.25.13-.49.25-.74.36l-.36.17c.51-.24,0,0-.12,0a9.54,9.54,0,0,1-1.38.42l2.16.88-8.25-13.63-13-21.56-3-5-.3,2.32,6.43-6.42a1.92,1.92,0,0,0-2.71-2.71l-6.42,6.43a1.94,1.94,0,0,0-.3,2.31l8.25,13.64,13,21.56,3,5a2,2,0,0,0,2.17.88,17.82,17.82,0,0,0,6.25-3.08,28.3,28.3,0,0,0,6.52-6.54,20.57,20.57,0,0,0,2.61-19.47c-4.13-10.5-15-16.24-25.27-19.32a54.63,54.63,0,0,0-8-1.85,2,2,0,0,0-2.35,1.34A1.92,1.92,0,0,0,124.5,190.36Z"/><path class="cls-11" d="M22.62,89.89a29.25,29.25,0,0,1-3.5-2l-.94-.64-.52-.38-.21-.16c-.72-.56-1.41-1.16-2.07-1.78A35.31,35.31,0,0,1,7.67,74L5.51,76.8c2.47.74,5,1.33,7.53,1.85a51.83,51.83,0,0,0,14,1.41,2,2,0,0,0,1.36-3.27l.19.25c-.08-.12-.17-.23-.26-.34l-.81-1.13q-1.41-2-2.65-4.14a49.26,49.26,0,0,1-5.55-12.94L17.5,60.92a47.41,47.41,0,0,1,5.33.38,126.07,126.07,0,0,1,14.73,2.62c2.45.58,4.88,1.27,7.31,1.91l16.41,4.31,19.29,5.07,15.48,4.06a53.28,53.28,0,0,0,5.39,1.39c3.59.56,7.22,1,10.82,1.47l19.23,2.61L148.32,87l4.13.56.37,0c.34.05,1.74,0,.63.08,1.18-.06,2.36-.22,3.55-.25a66.86,66.86,0,0,1,7.88.25l-1.65-2.88a32,32,0,0,1-6.72,8.55,1.92,1.92,0,0,0,.39,3l.53.38.59.44c.26.19-.4-.32-.14-.12l.19.16.49.39a44.9,44.9,0,0,1,4.59,4.35,40.91,40.91,0,0,1,9.36,16.43c2.13,7.57,1.44,15.46.08,23.06-1.45,8.08-3.64,16-5.15,24.07-1.35,7.29-2.66,15.78.89,22.67l1.15-2.82c.73-.11.4,0,.08,0s-.64,0-.95,0c-.52,0-1.05,0-1.56,0l-.87-.08h.09l-.26,0-.54-.1a18,18,0,0,1-9.44-5,2,2,0,0,0-3,.39c-.19.28,0,0,.14-.18-.15.14-.28.35-.42.5s-.49.51-.75.75l-.46.4-.29.23s.3-.21-.05,0a18.87,18.87,0,0,1-3.34,1.94l-.46.21c.34-.15-.19.07-.27.1-.44.17-.88.33-1.32.47a25.94,25.94,0,0,1-2.72.72,34.75,34.75,0,0,1-8,.63c-2.46-.05-2.46,3.78,0,3.83,7,.16,15.15-1.16,20.19-6.44a9.76,9.76,0,0,0,1-1.27l-3,.39c4.39,4.33,10.92,7.18,17.17,6.24,1.3-.2,1.65-1.84,1.15-2.82-.16-.29-.3-.59-.44-.9.18.4,0-.12-.06-.17s-.12-.32-.17-.48a16.35,16.35,0,0,1-.6-2.18,20.76,20.76,0,0,1-.44-4.34,53.43,53.43,0,0,1,1-10.48c1.44-8.14,3.66-16.11,5.18-24.24s2.42-16.38.52-24.47A44.29,44.29,0,0,0,167,100.49a40,40,0,0,0-8.12-7.41l.39,3a28.48,28.48,0,0,0,4.94-5.72c.83-1.17,1.63-2.36,2.37-3.6a1.94,1.94,0,0,0-1.65-2.88,53.41,53.41,0,0,0-12,.07h1l-7.86-1.06-17.4-2.37L111,78.12c-2.88-.39-5.84-.63-8.71-1.18-1.89-.36-3.76-1-5.63-1.47L81.82,71.58,63.49,66.76l-16.1-4.23c-2.72-.71-5.43-1.44-8.14-2.14a104.36,104.36,0,0,0-20.56-3.26c-.39,0-.79,0-1.19,0a1.93,1.93,0,0,0-1.84,2.42,55.07,55.07,0,0,0,10.06,20l1.35-3.27a47.87,47.87,0,0,1-13.23-1.31c-2.46-.51-4.91-1.09-7.31-1.81-1.73-.52-2.82,1.38-2.16,2.81,3.37,7.29,8.94,13.82,16.31,17.27a2,2,0,0,0,2.62-.69,1.91,1.91,0,0,0-.68-2.61Z"/><path class="cls-13" d="M144.73,134.33c0-3.16,0-6-.07-8.38a33.93,33.93,0,0,0-7-20.07c-7.51-9.74-22.83-21.36-53.21-21.36-32,0-47.33,11.5-54.37,20.4a28.72,28.72,0,0,0-6.05,15.83c-1,14.26-3.38,46.71,8.11,62,12.5,16.67,35.09,19.14,53,19.14s48.49-3.82,54.87-20.41c1.63-4.24,2.72-10.4,3.43-17.21,4.6.15,24.64-.08,24.64-15.33C168.07,132.4,148.78,133.84,144.73,134.33Z"/><path class="cls-14" d="M151.75,134.16v.17l.89-.1Z"/><path class="cls-14" d="M39.2,182.77c-11.49-15.31-9.09-47.76-8.11-62a28.64,28.64,0,0,1,6.05-15.83C43.9,96.36,58.31,85.41,87.9,84.58c-1.12,0-2.25-.06-3.41-.06-32,0-47.33,11.5-54.37,20.4a28.72,28.72,0,0,0-6.05,15.83c-1,14.26-3.38,46.71,8.11,62,12.5,16.67,35.09,19.14,53,19.14,1,0,2.11,0,3.22,0C71.19,201.5,50.82,198.28,39.2,182.77Z"/><path class="cls-15" d="M144.73,134.33c0-3.16,0-6-.07-8.38a33.93,33.93,0,0,0-7-20.07,46,46,0,0,0-4.35-4.87,185.71,185.71,0,0,1,3.19,48.56c-2,27.78-6.43,40.54-16,47.2,9.07-3.12,16.61-8,19.43-15.27,1.63-4.24,2.72-10.4,3.43-17.21,4.6.15,24.64-.08,24.64-15.33C168.07,132.4,148.78,133.84,144.73,134.33Z"/><path class="cls-16" d="M146.65,134.33a98.94,98.94,0,0,0-.37-12.3,36.46,36.46,0,0,0-3.62-11.85,41.24,41.24,0,0,0-9.41-11.89c-8.42-7.53-19.12-12-30.15-14a106.1,106.1,0,0,0-24.4-1.51A95.71,95.71,0,0,0,57.21,86c-9.41,2.63-18.49,7.15-25.41,14.15a32.66,32.66,0,0,0-8.88,15.44,55.88,55.88,0,0,0-1,8.94q-.25,3.83-.42,7.67c-.53,12.4-.45,25.25,2.71,37.35a40.85,40.85,0,0,0,7.72,16,43.91,43.91,0,0,0,16,11.91c11.84,5.3,25.1,6.47,37.93,6.41a137,137,0,0,0,16.57-1.1,95.59,95.59,0,0,0,18.1-3.91A44.34,44.34,0,0,0,135.39,191a23.46,23.46,0,0,0,4.92-5.73,29.37,29.37,0,0,0,3.11-8.54,105.66,105.66,0,0,0,1.93-12.39l-1.92,1.91a45.29,45.29,0,0,0,11.2-1c4.9-1.09,9.75-3.31,12.75-7.48,3.37-4.69,3.4-11.67.83-16.72-2.28-4.47-6.91-7-11.66-8.08a36.09,36.09,0,0,0-11.82-.5,2,2,0,0,0-1.91,1.92,1.92,1.92,0,0,0,1.91,1.91,36.52,36.52,0,0,1,3.77-.25c.85,0,1.71,0,2.56,0,.46,0,.93.06,1.39.1l.78.08.27,0c.34,0-.41-.07.15,0a26.88,26.88,0,0,1,3.09.64c.49.14,1,.29,1.47.46l.65.25c.09,0,.52.22.06,0l.38.17a16.36,16.36,0,0,1,2.77,1.63c-.42-.3.22.19.32.28l.57.53c.17.17.33.34.49.52s.19.21.28.32l.19.23c-.15-.2-.17-.21,0,0a15.33,15.33,0,0,1,.88,1.38c.12.22.23.46.34.69,0,.06.23.54.06.12.06.15.12.3.17.45a13.88,13.88,0,0,1,.51,1.78c.08.35.14.71.19,1.06,0-.33,0,0,0,0,0,.26.05.51.07.77a19.46,19.46,0,0,1,0,2.16c0,.3,0,.61-.07.91,0,.58.07-.37,0,.2l-.12.68a11.85,11.85,0,0,1-.49,1.74c0,.1-.07.2-.11.3-.16.49.18-.34,0,.12-.14.28-.27.56-.41.83-.27.49-.58.94-.89,1.4s.26-.29-.07.08c-.1.11-.19.23-.28.34s-.4.43-.61.64a13.61,13.61,0,0,1-1.21,1.07c.38-.3-.22.16-.32.23q-.42.3-.87.57c-.44.27-.9.52-1.36.76l-.74.35-.41.18c.44-.19,0,0-.1,0a31,31,0,0,1-3.26,1.06,35.8,35.8,0,0,1-3.54.72l-.41.07c-.57.08.17,0-.17,0l-.8.09-1.65.15a44.43,44.43,0,0,1-4.76.1,2,2,0,0,0-1.91,1.92,93.43,93.43,0,0,1-1.91,11.87,37.27,37.27,0,0,1-1.46,4.83l-.12.3c.17-.42,0,.08-.06.14-.11.24-.22.49-.35.73-.26.53-.56,1-.87,1.54l-.45.67c-.09.14-.19.27-.28.4s-.32.42-.15.2-.16.19-.15.19l-.32.37c-.21.26-.43.5-.65.74a24.66,24.66,0,0,1-2.6,2.41s-.48.38-.16.13l-.27.21-.78.56c-.56.4-1.13.77-1.72,1.13q-1.65,1-3.39,1.86c-.6.29-1.2.57-1.81.83l-.44.19-.26.11-1.08.43c-1.3.5-2.61,1-3.94,1.37a83.23,83.23,0,0,1-8.53,2.17,116.33,116.33,0,0,1-16.85,2.1,145.57,145.57,0,0,1-16.58,0A87.41,87.41,0,0,1,57.9,197c-11.57-3.17-22.54-9.91-27.6-21.28-.43-1-1-2.36-1.39-3.65s-.86-2.79-1.21-4.21a83.25,83.25,0,0,1-1.61-8.61,141.18,141.18,0,0,1-1-18.61c0-5.37.29-10.73.64-16.08a49.49,49.49,0,0,1,.91-8,26.73,26.73,0,0,1,4.8-10.16,37.16,37.16,0,0,1,3.24-3.63c.65-.65,1.32-1.28,2-1.89l1.08-.92.53-.43.39-.31a49.48,49.48,0,0,1,5.44-3.63c1-.59,2.05-1.15,3.1-1.67.58-.29,1.17-.56,1.75-.83l.83-.37.42-.18c.12-.06.11,0,0,0l.35-.14C63.4,87,77.84,85.77,91.64,86.66a80.23,80.23,0,0,1,20,3.72,56.17,56.17,0,0,1,14,6.78c.47.32.94.64,1.4,1l.64.47.31.23-.08-.06.25.19c.82.65,1.63,1.33,2.41,2a45.81,45.81,0,0,1,4.15,4.21c.3.35.6.71.89,1.07l.39.48.15.19c.13.16.1.13-.07-.1l.32.43a33.77,33.77,0,0,1,3,4.83,31.42,31.42,0,0,1,3.17,10.59,104.91,104.91,0,0,1,.29,11.63C142.82,136.79,146.65,136.8,146.65,134.33Z"/><path class="cls-4" d="M126.92,88.67,38.24,86.12a40.19,40.19,0,0,0-12.12,14.67A39.43,39.43,0,0,0,22.93,118a477.11,477.11,0,0,1,61.88-3.83,624.45,624.45,0,0,1,67,3.83Z"/><path class="cls-7" d="M126.92,86.76l-3.65-.11-9.7-.28L99.85,86l-15.92-.46-16-.46-14.22-.41-10.54-.3c-1.6,0-3.22-.18-4.82-.14-1.17,0-2.08,1-2.93,1.69A42.27,42.27,0,0,0,29,92.6a36.33,36.33,0,0,0-6.38,12.29A42.6,42.6,0,0,0,21,116.23c0,.6,0,1.19,0,1.79a2,2,0,0,0,2.43,1.84l.74-.1c.35-.05-.49.06-.27,0l.22,0,.49-.07,1.27-.16c2.73-.34,5.46-.64,8.2-.92q14.49-1.45,29-2.05,19.78-.84,39.57-.16,16.69.54,33.33,2c3.52.3,7,.63,10.55,1,1.66.17,3.34.43,5,.55l.21,0a1.88,1.88,0,0,0,1.75-1.18,2,2,0,0,0-.4-2.09l-8.38-9.88L131.35,90.94l-3.08-3.62a1.91,1.91,0,1,0-2.7,2.7L134,99.91l13.42,15.84,3.08,3.62,1.35-3.27c-4.26-.51-8.54-.92-12.82-1.3q-15.9-1.41-31.87-2.06c-13.26-.53-26.53-.62-39.79-.16q-15.4.53-30.78,2c-3.09.3-6.18.62-9.26,1-1.55.19-3.15.32-4.68.61l-.18,0L24.84,118A34.28,34.28,0,0,1,36.56,90c.69-.63,1.4-1.23,2.13-1.82.43-.34-.31.23,0,0a2.48,2.48,0,0,1,.26-.19l.22-.17-1,.26,8.82.26,21.18.6,25.62.74,22.15.64c3.58.1,7.18.34,10.76.31h.15C129.38,90.65,129.38,86.83,126.92,86.76Z"/><path class="cls-17" d="M67.59,161.72h30s-1.87,27.11-15,27.11S67.59,161.72,67.59,161.72Z"/><path class="cls-15" d="M67,160.5H98S96,186,82.5,186c-11.62,0-14.69-18.75-15.33-24.07C67.07,161,67,160.5,67,160.5Z"/><path class="cls-18" d="M67.19,161.72H97.81S95.9,187.24,82.5,187.24,67.19,161.72,67.19,161.72Z"/><path class="cls-19" d="M75.48,161.72H67.19s1.91,25.52,15.31,25.52A9.81,9.81,0,0,0,88.78,185C77.17,184.12,75.48,161.72,75.48,161.72Z"/><rect class="cls-15" x="36.01" y="161.08" width="22.33" height="9.57" rx="3.75"/><rect class="cls-15" x="108.1" y="161.08" width="22.33" height="9.57" rx="3.75"/><path class="cls-19" d="M143.88,158.81s15.63,1.19,15.63-9.34c0-11.31-14.72-8.88-14.72-8.88Z"/><rect class="cls-20" x="59.07" y="127.77" width="30.25" height="12.32"/><rect class="cls-21" x="20.08" y="117.91" width="47.73" height="39.66" rx="8.31"/><path class="cls-22" d="M54,117.91H25.16c-1.79,0,27.55,1.28,27.55,1.28a5.3,5.3,0,0,1,5.31,5.3v29.06a5.28,5.28,0,0,1-1,3,5.29,5.29,0,0,0,2.25-4.33V123.21A5.3,5.3,0,0,0,54,117.91Z"/><path class="cls-23" d="M27.3,155.66a5.3,5.3,0,0,1-5.3-5.3s-1.92-29.1-1.92-27.15v29.06a5.3,5.3,0,0,0,5.31,5.3H53.55C55.51,157.57,27.3,155.66,27.3,155.66Z"/><rect class="cls-24" x="27.81" y="125.77" width="23.53" height="23.93" rx="3.37"/><path class="cls-25" d="M34.19,146.34V129.15a3.38,3.38,0,0,1,3.38-3.38H31.19a3.38,3.38,0,0,0-3.38,3.38v17.19a3.37,3.37,0,0,0,3.38,3.37h6.38A3.37,3.37,0,0,1,34.19,146.34Z"/><rect class="cls-26" x="27.81" y="125.77" width="23.53" height="23.93" rx="3.37"/><path class="cls-20" d="M62.22,117.91H53.49a5.58,5.58,0,0,1,5.58,5.59V152a5.58,5.58,0,0,1-5.58,5.59h8.73A5.59,5.59,0,0,0,67.81,152V123.5A5.59,5.59,0,0,0,62.22,117.91Z"/><rect class="cls-21" x="89.32" y="117.91" width="47.73" height="39.66" rx="8.31"/><rect class="cls-24" x="97.05" y="125.77" width="23.53" height="23.93" rx="3.37"/><path class="cls-20" d="M131.46,117.91h-8.73a5.58,5.58,0,0,1,5.58,5.59V152a5.58,5.58,0,0,1-5.58,5.59h8.73a5.59,5.59,0,0,0,5.59-5.59V123.5A5.59,5.59,0,0,0,131.46,117.91Z"/><rect class="cls-27" x="97.05" y="125.77" width="23.53" height="23.93" rx="3.37"/><path class="cls-28" d="M122.89,117.91H94.06c-1.79,0,27.56,1.28,27.56,1.28a5.3,5.3,0,0,1,5.3,5.3v29.06a5.27,5.27,0,0,1-1,3,5.29,5.29,0,0,0,2.25-4.33V123.21A5.31,5.31,0,0,0,122.89,117.91Z"/><path class="cls-29" d="M96.5,155.66a5.31,5.31,0,0,1-5.31-5.3s-1.91-29.1-1.91-27.15v29.06a5.3,5.3,0,0,0,5.3,5.3h28.16C124.7,157.57,96.5,155.66,96.5,155.66Z"/><path class="cls-30" d="M103.43,146.34V129.15a3.38,3.38,0,0,1,3.38-3.38h-6.38a3.38,3.38,0,0,0-3.38,3.38v17.19a3.37,3.37,0,0,0,3.38,3.37h6.38A3.37,3.37,0,0,1,103.43,146.34Z"/><rect class="cls-21" x="59.07" y="133.82" width="30.25" height="12.32"/><rect class="cls-31" x="59.07" y="133.82" width="30.25" height="0.78"/><polygon class="cls-20" points="144.78 140.09 133.47 140.09 133.47 127.77 144.78 127.77 144.78 133.97 144.78 134.6 144.78 140.09"/><rect class="cls-21" x="128.31" y="133.82" width="16.47" height="12.32"/><rect class="cls-30" x="128.2" y="133.82" width="16.59" height="0.78"/><polygon class="cls-32" points="97.06 131.62 110.55 149.71 104.2 149.71 97.06 140.09 97.06 131.62"/><path class="cls-33" d="M113.5,149.71h3.71a3.37,3.37,0,0,0,3.37-3.37v-7.25l-9.83-13.32H100.43a3.35,3.35,0,0,0-3.09,2Z"/><polygon class="cls-34" points="27.82 131.62 41.31 149.71 34.96 149.71 27.82 140.09 27.82 131.62"/><path class="cls-35" d="M44.26,149.71H48a3.37,3.37,0,0,0,3.37-3.37v-7.25l-9.83-13.32H31.19a3.38,3.38,0,0,0-3.1,2Z"/><path class="cls-9" d="M20.06,99.2s16,1.91,36.36-6.38c0,0,10.85,23.6,29.35,30,0,0,1.28-20.41,10.85-34.45a46.37,46.37,0,0,0,21.69,17.86,32,32,0,0,1,2.3-13.33s18.11,30.56,40.44,29.28c0,0-10.52-16.26-12.44-28.39,0,0-25.32-11.18-69.22-15C24.2,74,20.06,99.2,20.06,99.2Z"/><path class="cls-10" d="M151.34,114.4c-8.46-3.36-17.15-6.87-24.24-12.44,7.21,8.9,19.72,21,34,20.2a122,122,0,0,1-9.13-17.46A34,34,0,0,0,151.34,114.4Z"/><path class="cls-10" d="M80.24,120.28c.52.3,1,.57,1.57.84l.27.13c.48.24,1,.47,1.48.68l.36.17c.61.25,1.22.49,1.85.7v-.34s0-.09,0-.14v-.08c0-.22,0-.5.08-.84v-.12c0-.1,0-.21,0-.32s0-.11,0-.17,0-.23,0-.35l0-.18c0-.13,0-.27,0-.41v-.08c0-.28.07-.58.12-.89l0-.28.06-.4c0-.12,0-.23,0-.35l.06-.41.06-.42.06-.4c0-.19.06-.38.1-.58s0-.18,0-.27c1-6.17,3.18-15.38,7.55-23.44A85.82,85.82,0,0,0,81.44,112a52.32,52.32,0,0,1-6.37-6.26C70,99.85,65,90,61.84,82.93c-16.58,8.29-27.07,12.18-41.56,15.4a5.15,5.15,0,0,0-.15.53l1.07.43c4,.26,18,.51,35.22-6.47,0,0,8,17.45,22,26.39h0c.55.35,1.11.69,1.68,1Z"/><path class="cls-11" d="M20.06,101.11a44.47,44.47,0,0,0,6.73.15A85.57,85.57,0,0,0,44.16,98.8a93.25,93.25,0,0,0,12.77-4.14l-2.16-.88a66.09,66.09,0,0,0,4.85,8.5A66.34,66.34,0,0,0,73.55,118a40.34,40.34,0,0,0,11.71,6.61,1.93,1.93,0,0,0,2.42-1.85c0-.69.12-1.38.2-2.08,0-.35.08-.71.12-1.06,0-.2,0-.4.08-.6s.07-.56,0,0c0-.13,0-.27,0-.4.15-1.05.31-2.1.5-3.14A83.33,83.33,0,0,1,93.22,98.9a50.47,50.47,0,0,1,5-9.58H95a35,35,0,0,0,3.56,4.84,50.1,50.1,0,0,0,10.31,9.24,46.57,46.57,0,0,0,9,4.66,1.92,1.92,0,0,0,2.42-1.85,27.33,27.33,0,0,1,2-12.37l-3.5-.46a43.6,43.6,0,0,0,5.49,10,49,49,0,0,0,18.84,16.24,48.16,48.16,0,0,0,18,4.44,1.92,1.92,0,0,0,1.65-2.88,101.3,101.3,0,0,1-9.95-19.61,44.49,44.49,0,0,1-2.29-8.33,1.94,1.94,0,0,0-2.36-1.33,2,2,0,0,0-1.33,2.35A58.6,58.6,0,0,0,152,109.53a123.94,123.94,0,0,0,6.1,11.43c.44.73.88,1.46,1.34,2.17l1.65-2.88a42.92,42.92,0,0,1-7.94-1.13c-1.24-.29-2.46-.64-3.66-1-.56-.19-1.13-.39-1.68-.6l-.82-.32-.45-.18-.25-.11a42.83,42.83,0,0,1-6-3.2c-.9-.57-1.79-1.18-2.65-1.83-.08-.06-.64-.49-.35-.26l-.6-.47c-.41-.33-.81-.67-1.21-1a49.24,49.24,0,0,1-4.2-4.1c-.6-.66-1.19-1.34-1.76-2l-.78-1c.32.41-.08-.11-.15-.2s-.29-.39-.44-.59a51.42,51.42,0,0,1-4.25-6.85c-.42-.82-.81-1.65-1.18-2.49-.23-.51.18.47,0,0l-.12-.3-.09-.23A1.91,1.91,0,0,0,120.87,91a1.87,1.87,0,0,0-1.91.91,31.73,31.73,0,0,0-2.57,14.3l2.43-1.84a43.22,43.22,0,0,1-13-8.2,49.2,49.2,0,0,1-4.16-4.26c-.51-.6-1-1.21-1.49-1.82.34.42,0,0-.06-.09l-.27-.36-.52-.72c-.35-.5-.7-1-1-1.54a2,2,0,0,0-3.31,0c-6.47,9.56-9.51,21.38-10.84,32.73-.11.89-.21,1.79-.26,2.69L86.28,121a29.92,29.92,0,0,1-4.9-2.22,42.62,42.62,0,0,1-4.62-3c-.26-.19-.45-.34-.82-.64l-1.09-.91c-.72-.61-1.41-1.24-2.1-1.89-1.28-1.22-2.5-2.5-3.67-3.82-.59-.67-1.16-1.34-1.72-2l-.75-.94-.24-.3-.13-.17c-.07-.09-.14-.19-.22-.28q-1.39-1.86-2.7-3.8c-1.33-2-2.59-4.06-3.74-6.16-.53-1-1-1.93-1.51-2.93A1.91,1.91,0,0,0,55.91,91a90.7,90.7,0,0,1-21.14,5.76c-1,.15-2.52.32-3.81.44s-2.35.19-3.54.24c-1.71.07-3.43.09-5.15,0-.74,0-1.48-.06-2.21-.15a1.93,1.93,0,0,0-1.92,1.92,2,2,0,0,0,1.92,1.91Z"/><path class="cls-36" d="M126,219.14c-.4-10.86-3.85-18.17-6.34-22.09a8.13,8.13,0,0,0-6.13-3.75l-7.15-.65a8.14,8.14,0,0,0-5.93,1.84l-2.81,2.35a8.1,8.1,0,0,1-5.2,1.88H79.14a8.1,8.1,0,0,1-5.2-1.88l-2.81-2.35a8.14,8.14,0,0,0-5.93-1.84L58,193.3a8.13,8.13,0,0,0-6.12,3.75c-2.5,3.92-5.94,11.23-6.34,22.09-.64,17.22,10.84,30,15.31,30s10.84-15.31,10.84-15.31H99.81s6.37,15.31,10.84,15.31S126.6,236.36,126,219.14Z"/><path class="cls-37" d="M76.53,198.29a8,8,0,0,1-2.59-1.45l-2.81-2.35a8.21,8.21,0,0,0-4.26-1.82c-1.7,12.38-8,60.23-3.19,54.91C69,241.73,78.52,223.35,76.53,198.29Z"/><path class="cls-38" d="M29.63,20.72l1.72,14L34.1,57.1l.63,5.09a4,4,0,0,0,2.81,3.69l5.16,1.36,12.74,3.35,16.22,4.26,15.59,4.09,10.86,2.85a26.15,26.15,0,0,0,3.26.77l9.6,1.31,16,2.18,15.86,2.15,9.07,1.23.44.06a4.41,4.41,0,0,0,2.49-.19,3.53,3.53,0,0,0,1.83-1.57l6.72-15.38L174,48l2.44-5.59a4,4,0,0,0,0-3.86,3.82,3.82,0,0,0-3.31-1.9l-7.54.43-17.76,1L127.23,39.3l-16.16.92-4.17.24a5.48,5.48,0,0,0-.7,0c.73-.11,1.38.26.67,0L98,37.64l-17-5.5L61.24,25.72,44.07,20.15l-9.18-3L34.47,17a3.86,3.86,0,0,0-4.71,2.68,3.91,3.91,0,0,0,2.68,4.7l6.43,2.09L54.6,31.61,74.31,38,92.47,43.9l11.29,3.66a8.55,8.55,0,0,0,2.44.6c.78,0,1.58-.09,2.36-.14l14-.8,20.31-1.16L162,45l10.7-.61.49,0-3.3-5.76L163.15,54,152.53,78.28l-2.44,5.59,4.32-1.76-6.4-.87-14.8-2L116.6,77l-11.8-1.6a26.13,26.13,0,0,1-3.2-.58L92.49,72.4,77.74,68.52,61.29,64.21l-14-3.68-7.4-1.94-.34-.09,2.81,3.69-1.73-14L37.91,25.81l-.63-5.09A4.18,4.18,0,0,0,36.16,18a3.82,3.82,0,0,0-2.71-1.12C31.59,17,29.36,18.59,29.63,20.72Z"/><path class="cls-38" d="M113.84,1,103,1.58,76.9,3.11,45.36,5,18.11,6.54c-4.39.26-8.79.46-13.18.77l-.19,0a3.83,3.83,0,0,0-1,7.51L13.32,18l23.11,7.56,28.38,9.28,25.47,8.33,14.07,4.6c2.37.78,5.07.22,7.51.08l22-1.26,29.52-1.69,27.27-1.57,15-.85.71,0a3.83,3.83,0,0,0,1-7.52l-9.19-3.36-22.07-8.07L149.4,13.71,126.29,5.26c-3.75-1.37-7.47-2.9-11.27-4.12l-.16-.06a3.84,3.84,0,0,0-4.71,2.68,3.92,3.92,0,0,0,2.67,4.7L122,11.82l22.07,8.07,26.71,9.76L193.9,38.1c3.75,1.37,7.47,2.9,11.27,4.12l.16.06,1-7.52-10.62.61L170.67,36.8l-29.86,1.72L116,39.94l-7.38.42-1.94.11c-.93.05-.28-.2.47.16a25.13,25.13,0,0,0-3-1L96.9,37.27,73.5,29.62l-28.41-9.3L20,12.11,6.38,7.67l-.62-.21L4.74,15l10.87-.63,26.08-1.53L73.23,11l27.24-1.6c4.4-.25,8.8-.45,13.19-.77h.18a3.9,3.9,0,0,0,3.83-3.83A3.87,3.87,0,0,0,113.84,1Z"/><path class="cls-37" d="M94.72,198.29a8,8,0,0,0,2.58-1.45l2.82-2.35a8.14,8.14,0,0,1,4.26-1.82c1.69,12.38,8,60.23,3.18,54.91C102.3,241.73,92.73,223.35,94.72,198.29Z"/><path class="cls-39" d="M127.88,219.14c-.31-7.82-2.16-15.75-6.25-22.49a10.68,10.68,0,0,0-4.38-4.23,12.12,12.12,0,0,0-4.3-1.09c-2.18-.19-4.37-.41-6.55-.59a10,10,0,0,0-6.2,1.55,33,33,0,0,0-3.08,2.47,8.14,8.14,0,0,1-3.44,1.92,10.41,10.41,0,0,1-2.23.13c-4.15,0-8.3.08-12.44,0-2.75-.06-4.54-2-6.52-3.66a10.23,10.23,0,0,0-6.89-2.44c-.84,0-1.68.14-2.52.22l-3.92.35a15.42,15.42,0,0,0-3.45.55A10.33,10.33,0,0,0,50.33,196a32,32,0,0,0-2,3.52,45.14,45.14,0,0,0-3.64,10.77,46.87,46.87,0,0,0-.86,14.27,39.32,39.32,0,0,0,8.83,21.14,17.24,17.24,0,0,0,5.62,4.68,5.54,5.54,0,0,0,3.36.59,6.35,6.35,0,0,0,3-1.69,26.62,26.62,0,0,0,5-6.9C70.87,240.23,72,238,73,235.79l.63-1.47-1.85,1.41H99.81L98,234.32q1.49,3.56,3.3,6.94a45.1,45.1,0,0,0,3,5,14.88,14.88,0,0,0,3.79,4c2.89,1.88,5.94,0,8.21-1.93A31.5,31.5,0,0,0,123.83,238a40.4,40.4,0,0,0,4-18.87c-.09-2.46-3.91-2.47-3.83,0a36.9,36.9,0,0,1-2.78,15.3,36.1,36.1,0,0,1-3.12,5.83q-.41.63-.84,1.23l-.43.58c-.19.24.16-.21,0,0s-.17.23-.27.34a25.28,25.28,0,0,1-1.83,2.05c-.53.53-1.1,1-1.68,1.5.4-.33,0,0-.12.08l-.39.27c-.28.18-.56.36-.85.51-.12.06-.25.11-.36.18-.27.15.46-.15,0,0l-.68.19c-.34.11.46,0,.14,0a1.58,1.58,0,0,0-.31,0c.09,0,.46.13.07,0l-.18,0c-.21-.05-.11-.19.15.06a4.47,4.47,0,0,0-.74-.43c-.25-.15.3.28-.08-.06l-.42-.38c-.26-.26-.51-.52-.75-.8s-.26-.29-.38-.44l-.19-.24c-.14-.17.19.26,0,0a44.44,44.44,0,0,1-2.93-4.62c-.91-1.64-1.75-3.32-2.54-5l-.75-1.64c-.06-.16-.13-.32-.2-.48-.16-.37.12.29.1.24a2,2,0,0,0-1.84-1.4H71.73a2,2,0,0,0-1.84,1.4c.07-.17.24-.56,0-.13-.11.27-.23.54-.35.81-.42.93-.85,1.86-1.3,2.77a54.14,54.14,0,0,1-4,7.11l-.55.78c-.05.06-.32.41-.18.24s-.17.21-.23.27a12.72,12.72,0,0,1-1.22,1.32c-.15.14-.71.54-.27.24-.2.14-.39.27-.6.39s-.4.2-.09.06,0,0-.08,0a1.18,1.18,0,0,0-.27.06s.46,0,.12,0a.76.76,0,0,0-.21,0c-.24,0,.45.11.21,0s-.35-.08-.52-.13l-.25-.09c-.33-.1.21.11.11.05a6.36,6.36,0,0,0-.58-.3,14.13,14.13,0,0,1-1.22-.79c-.31-.22.08.07,0,0l-.31-.25c-.25-.21-.5-.43-.73-.65a26,26,0,0,1-2.7-2.95l0,0-.16-.22-.32-.43-.69-1c-.45-.67-.88-1.37-1.28-2.07a35.51,35.51,0,0,1-3.92-10.08,42.54,42.54,0,0,1,2.13-24.22c.34-.86.42-1.07.81-1.91.3-.64.61-1.28.94-1.9A13.83,13.83,0,0,1,54.44,197c1.78-1.75,4-1.77,6.4-2,2.25-.21,4.93-.81,7.12-.09,2.38.78,4,3.11,6.07,4.37s4.64,1.4,7.15,1.4H88.7a30.54,30.54,0,0,0,5.74-.22c3-.57,5-2.72,7.27-4.52a6.5,6.5,0,0,1,4.64-1.34c.8.06,1.6.15,2.4.22l3.68.34a8.4,8.4,0,0,1,2.71.52c2.56,1,4,4.05,5.12,6.59.39.84.47,1.05.8,1.91s.61,1.64.87,2.48a46.2,46.2,0,0,1,1.45,5.93,50.22,50.22,0,0,1,.67,6.59,1.92,1.92,0,0,0,3.83,0Z"/><polygon class="cls-40" points="33.45 20.72 38.56 62.19 101.72 78.78 106.19 44.33 33.45 20.72"/><polygon class="cls-41" points="106.19 44.33 173.17 40.5 153.4 85.8 101.72 78.78 106.19 44.33"/><path class="cls-38" d="M106.18,49.11l10-.57,24-1.37L169,45.51l25-1.43c4.06-.23,8.13-.41,12.19-.7h.17a4.79,4.79,0,0,0,1.27-9.4l-10.16-3.71-24.1-8.81L145.21,11.16,122.59,2.89,116.49.66A7.44,7.44,0,0,0,113.61,0c-4.16.14-8.31.49-12.46.73L75.75,2.22,45.75,4,19.51,5.5,5.4,6.33l-.66,0a4.79,4.79,0,0,0-1.27,9.4L13.6,19.08,37.81,27l29.36,9.6,25.29,8.27c4.09,1.34,8.16,2.8,12.28,4l.17,0a4.83,4.83,0,0,0,5.89-3.34,4.88,4.88,0,0,0-3.34-5.88L97.33,36.4,73.12,28.49,43.76,18.88,18.47,10.61c-4.09-1.33-8.15-2.81-12.28-4L6,6.54l-1.28,9.4,9.87-.58,24-1.4L68.5,12.21l27.3-1.6,16.4-1c.47,0,1,0,1.42-.08,0,0,.16,0,.22,0s-1.71-.41-1.12-.12a36.35,36.35,0,0,0,3.94,1.44l19.75,7.22,27.7,10.13L190,37.7,204.39,43l.69.25,1.27-9.4-10,.57-24,1.38L143.52,37.4l-25,1.44c-4.06.23-8.13.41-12.19.69h-.18c-2.49.15-4.9,2.1-4.78,4.79C101.51,46.8,103.51,49.27,106.18,49.11Z"/><polygon class="cls-42" points="106.19 44.33 206.35 38.59 113.84 4.77 4.74 11.15 106.19 44.33"/><polygon class="cls-43" points="23.88 13.97 114.16 7.64 206.28 38.56 113.84 4.77 4.74 11.15 106.19 44.33 109.39 44.15 23.88 13.97"/><path class="cls-44" d="M34.39,205.92s-6.68-1.45-9.23,4.29c-2.67,6-.79,23.79,4.47,26.79a7.78,7.78,0,0,0,8.32-.41S41.7,219.49,34.39,205.92Z"/><path class="cls-45" d="M29,230a10,10,0,0,1-4.54-4.89c.82,5.44,2.58,10.44,5.15,11.91a7.78,7.78,0,0,0,8.32-.41,49.47,49.47,0,0,0,.82-6.41A13.22,13.22,0,0,1,29,230Z"/><path class="cls-46" d="M34.9,204.07a11.66,11.66,0,0,0-5.63.22,9.43,9.43,0,0,0-6.37,6.55,27.27,27.27,0,0,0-.85,8.25,47,47,0,0,0,1.16,9.6,21,21,0,0,0,3.1,7.71,8.92,8.92,0,0,0,9.39,3.27,9.59,9.59,0,0,0,3.14-1.38,2.39,2.39,0,0,0,1.06-1.71,56.08,56.08,0,0,0,.77-6.18c.63-8.66-.5-17.72-4.63-25.45-1.16-2.18-4.47-.24-3.31,1.93a38.5,38.5,0,0,1,4.14,15.47,56.73,56.73,0,0,1,0,6.9q-.07,1.38-.21,2.76c0,.38-.08.76-.13,1.14,0,.2,0,.39-.07.58s.06-.4,0-.14a2.7,2.7,0,0,0,0,.28c-.11.74-.22,1.48-.38,2.21l.88-1.15a5.1,5.1,0,0,1-.86.53l-.44.21c.32-.15,0,0-.13.05a7.35,7.35,0,0,1-1.45.37l-.33,0a6.94,6.94,0,0,1-.79,0,5.82,5.82,0,0,1-1.55-.35c-.39-.15-.73-.43-1.11-.58s.29.29,0,0l-.33-.31a4.88,4.88,0,0,1-.52-.59c.32.4,0,0,0-.08s-.2-.3-.29-.45-.34-.58-.49-.88-.16-.31-.23-.47-.27-.62-.12-.26a27.9,27.9,0,0,1-1.45-4.74,36.24,36.24,0,0,1-.79-5.17,43.08,43.08,0,0,1-.16-5.33q0-1.23.18-2.46c0-.11.09-.66,0-.2,0-.15.05-.31.07-.46.06-.36.13-.72.21-1.07a12.22,12.22,0,0,1,.55-1.78c-.19.5,0-.06.13-.26s.24-.43.38-.63a3.87,3.87,0,0,1,.74-.88l.2-.18c.25-.23-.06,0,.1-.09a5.57,5.57,0,0,1,.57-.37,6.63,6.63,0,0,1,.59-.31c.19-.1-.06,0-.09,0l.37-.14a8.37,8.37,0,0,1,1.19-.32l.21,0c.36-.09-.25,0,0,0l.53-.05a11.63,11.63,0,0,1,1.77,0c.63.05-.4-.08.08,0l.2,0a2,2,0,0,0,2.35-1.34A1.93,1.93,0,0,0,34.9,204.07Z"/><path class="cls-47" d="M51.64,197.13A79.29,79.29,0,0,0,36,200.64s-9.57,23,5.74,40.19l10.12.61,10.7-6.93-4.23-30.68s-6.76-.29-10.08.81Z"/><path class="cls-14" d="M46.21,240.77c-12.13-15-8.64-34-6.67-41.26-1.19.33-2.38.71-3.53,1.13,0,0-9.57,23,5.74,40.19l10.12.61.42-.27Z"/><path class="cls-48" d="M58.34,203.83s-6.76-.29-10.08.81l.07-.17-.52.31a84.33,84.33,0,0,0,3.66,36.64l.4,0,10.7-6.93Z"/><path class="cls-16" d="M51.64,195.21a85,85,0,0,0-8.56,1.45,62,62,0,0,0-7.09,2,2.63,2.63,0,0,0-1.86,1.58l-.15.41a47.39,47.39,0,0,0-2.79,14.32,38.27,38.27,0,0,0,6.28,23.54c.72,1,1.5,2,2.32,3a3,3,0,0,0,2.13,1.27c1,.07,2,.12,3,.18,2.27.13,4.59.43,6.87.41a3.64,3.64,0,0,0,2-.87l3.08-2,6.27-4.06.41-.27a2,2,0,0,0,.88-2.16L63,223.62,60.7,207.09l-.52-3.77a1.94,1.94,0,0,0-1.84-1.41c-1.3,0-2.6,0-3.9,0a24.73,24.73,0,0,0-6.69.88l2.16,2.82,3.38-7.52a2,2,0,0,0-.69-2.61,1.93,1.93,0,0,0-2.62.68l-3.38,7.51a2,2,0,0,0,.15,2.13,1.91,1.91,0,0,0,2,.68,15.8,15.8,0,0,1,2.61-.54c1.08-.12,2.17-.18,3.26-.21s2.46,0,3.7,0l-1.85-1.4,1.43,10.37,2.28,16.53.52,3.78.88-2.16-10.7,6.93,1-.26-10.12-.61,1.35.56a31.86,31.86,0,0,1-6-9.95,35.65,35.65,0,0,1-1.48-5.28,31.15,31.15,0,0,1-.6-4.81,40.46,40.46,0,0,1,0-4.8c0-.72.09-1.43.16-2.15,0-.34.07-.68.11-1,0-.16.05-.33.07-.5-.06.47,0-.22,0-.31a51.31,51.31,0,0,1,1.45-6.59,29.3,29.3,0,0,1,1-2.91l-1.34,1.33a67.15,67.15,0,0,1,10.34-2.69c1.22-.22,2.45-.43,3.67-.6.16,0,.95-.13.27,0l.44-.06.41-.05a2,2,0,0,0,1.91-1.91A1.93,1.93,0,0,0,51.64,195.21Z"/><path class="cls-49" d="M29.22,100.18,28.35,108a2.18,2.18,0,0,0,2,2.42l9.76.53c4.4.23,8.48.69,11,1a2.17,2.17,0,0,0,2.45-2.16v-7.71a2.17,2.17,0,0,0-1.84-2.15,149.31,149.31,0,0,0-20.28-1.69A2.19,2.19,0,0,0,29.22,100.18Z"/><path class="cls-50" d="M51.71,99.93a149.31,149.31,0,0,0-20.28-1.69,2.19,2.19,0,0,0-2.21,1.94L28.35,108a2.19,2.19,0,0,0,.59,1.73l.28-2.53a2.19,2.19,0,0,1,2.21-1.94A149.31,149.31,0,0,1,51.71,107a2.17,2.17,0,0,1,1.84,2.15v-7A2.17,2.17,0,0,0,51.71,99.93Z"/><path class="cls-49" d="M122.54,98.9l.87,7.82a2.17,2.17,0,0,1-2,2.42c-2.11.12-5.56.32-9.76.54-4.4.22-8.48.68-11,1a2.18,2.18,0,0,1-2.45-2.17V100.8a2.18,2.18,0,0,1,1.84-2.15A152.91,152.91,0,0,1,120.33,97,2.19,2.19,0,0,1,122.54,98.9Z"/><path class="cls-50" d="M100.36,98.65A152.74,152.74,0,0,1,120.64,97a2.21,2.21,0,0,1,2.21,1.94l.87,7.82a2.2,2.2,0,0,1-.59,1.74l-.28-2.54a2.2,2.2,0,0,0-2.21-1.94,151,151,0,0,0-20.28,1.69,2.17,2.17,0,0,0-1.84,2.15v-7A2.18,2.18,0,0,1,100.36,98.65Z"/><path class="cls-11" d="M27.31,100.18l-.49,4.38c-.17,1.5-.64,3.3-.24,4.79a4.25,4.25,0,0,0,4.14,3l4.27.24c3.79.21,7.58.38,11.36.74,1.53.15,3,.34,4.57.51a4.11,4.11,0,0,0,4.32-2.72c.5-1.43.22-3.31.22-4.79s.1-3,0-4.46a4.13,4.13,0,0,0-3.23-3.79c-1.07-.21-2.19-.32-3.27-.46q-5-.68-10.1-1c-2.21-.14-4.42-.24-6.64-.28a5.09,5.09,0,0,0-3.06.66,4,4,0,0,0-1.77,2.67A2,2,0,0,0,28.71,102a1.94,1.94,0,0,0,2.36-1.34,2.05,2.05,0,0,1,.09-.43c0,.06-.16.19,0,0a.32.32,0,0,1,.24-.14c.28-.06-.34-.05.35,0h.63l1.53,0c1.65.05,3.3.14,5,.24q4.21.28,8.42.78l1.59.2c.34,0-.45-.06.09,0l.32,0,.76.11,1.06.15c.1,0,.62.2.43.11s.11.18.1.11c.08.33,0,0,0,.28v3.13c0,1.43,0,2.87,0,4.31,0,.19,0,.09,0,.23s-.05.13-.25.18c.37-.09-.17-.06-.34-.07-1.29-.12-2.58-.32-3.87-.45-3.42-.35-6.84-.53-10.27-.72-1.45-.07-2.89-.15-4.34-.24l-1.64-.09c-.05,0-.65,0-.42,0s0,0-.11,0c.2.15-.15-.24,0,0-.13-.26-.08-.16,0-.53s0-.49.08-.73l.29-2.61.49-4.38a1.92,1.92,0,0,0-3.83,0Z"/><path class="cls-11" d="M120.63,98.9c.28,2.58.45,5.2.86,7.76a1,1,0,0,1,0,.17c0,.12,0,.13,0,.24s-.06.14-.27.21c.34-.11-.22,0-.35,0l-3.6.2c-3.4.19-6.8.32-10.19.62-1.55.13-3.08.28-4.62.46l-1.62.2c-.08,0-.77,0-.5,0s-.22-.07-.07,0-.19-.23-.06,0c-.15-.23-.08-.11-.09-.3v-2.91c0-1.5,0-3,0-4.52,0-.22,0-.15,0-.21s0-.13.18-.27c-.07.06-.06,0-.15.08a2.31,2.31,0,0,1,.47-.11c.36-.07.74-.11,1.11-.17l.6-.08.48-.07c2.9-.38,5.82-.68,8.74-.9q2.85-.21,5.7-.31c1,0,2.06-.1,3.08-.08,0,0-.46-.11.14,0-.21-.05.21.13.09,0s.11.27.06.1.08.4.07.36a1.91,1.91,0,1,0,3.69-1,4.14,4.14,0,0,0-4-3.35c-2-.08-4,.1-6,.21q-4.83.27-9.63.84l-3.84.51a5.16,5.16,0,0,0-3.53,1.5c-1.3,1.51-1,3.54-1,5.38,0,1.65,0,3.31,0,5a4.19,4.19,0,0,0,2.09,3.64c1.43.8,3,.4,4.52.23,3.8-.43,7.6-.67,11.41-.87l4.81-.27c1.45-.08,3.12,0,4.38-.81a4.14,4.14,0,0,0,1.79-3.84c-.08-.83-.18-1.65-.27-2.47l-.58-5.16A2,2,0,0,0,122.54,97,1.92,1.92,0,0,0,120.63,98.9Z"/><circle class="cls-51" cx="25.8" cy="123.44" r="2.87"/><circle class="cls-51" cx="95.34" cy="123.44" r="2.87"/><path class="cls-16" d="M51.54,217.38l8.16-.23a1.92,1.92,0,0,0,0-3.83l-8.16.23a1.92,1.92,0,0,0,0,3.83Z"/><path class="cls-16" d="M54.53,229.87q3.6-2.28,7.39-4.23a1.91,1.91,0,0,0-1.93-3.3q-3.8,1.93-7.39,4.22a1.92,1.92,0,0,0,1.93,3.31Z"/><path class="cls-44" d="M138.75,205.92s6.68-1.45,9.23,4.29c2.67,6,.79,23.79-4.47,26.79a7.78,7.78,0,0,1-8.32-.41S131.44,219.49,138.75,205.92Z"/><path class="cls-45" d="M144.12,230a10,10,0,0,0,4.54-4.89c-.82,5.44-2.58,10.44-5.15,11.91a7.78,7.78,0,0,1-8.32-.41,49.47,49.47,0,0,1-.82-6.41A13.22,13.22,0,0,0,144.12,230Z"/><path class="cls-46" d="M139.26,207.76l.14,0,.16,0c.32-.07-.57,0-.18,0s1-.07,1.48-.06l.85.05c.49.05-.23-.06.12,0,.19,0,.39.07.58.12a10.33,10.33,0,0,1,1,.32c.3.1-.2-.12.21.1.2.1.39.21.58.32a5.07,5.07,0,0,1,1.42,1.35c.13.21.26.41.38.63s.37.77.24.47.05.14.07.21.11.31.16.47a16.72,16.72,0,0,1,.46,2c0,.17.05.35.08.53-.05-.35,0-.05,0,.12.05.41.09.82.12,1.24a38.91,38.91,0,0,1,0,5.29c-.05.9-.13,1.79-.24,2.69,0,.22,0,.45-.08.67,0-.33,0,.27-.05.35-.07.48-.15,1-.24,1.42a33.12,33.12,0,0,1-1.29,5c-.13.36-.26.72-.41,1.07s0-.07,0-.09l-.12.28-.27.55c-.15.3-.31.59-.48.88l-.26.4c0,.08-.36.51-.19.29s-.16.18-.2.23-.22.24-.33.34-.24.2-.34.3.32-.19,0,0a5.85,5.85,0,0,1-3.2.85l-.32,0-.21,0c.13,0,.13,0,0,0s-.5-.1-.75-.17l-.67-.22c-.43-.15.11.08-.26-.11a7.57,7.57,0,0,1-1.1-.65l.88,1.15c-.13-.58-.22-1.16-.31-1.74l-.06-.41,0-.27c.05.34,0-.28,0-.37s-.05-.41-.07-.62c-.1-.87-.18-1.74-.23-2.62a50.74,50.74,0,0,1,.91-14.26,34.94,34.94,0,0,1,3.22-8.91,2,2,0,0,0-.69-2.62,1.93,1.93,0,0,0-2.62.69c-3.79,7.1-5,15.3-4.75,23.27a60.37,60.37,0,0,0,.74,7.47,12.51,12.51,0,0,0,.25,1.36,3.24,3.24,0,0,0,1.93,1.8c3.33,1.64,7.66,1.5,10.47-1.15,1.89-1.79,2.91-4.47,3.64-6.91a43.6,43.6,0,0,0,1.61-9.42,35.83,35.83,0,0,0-.37-8.9c-.63-3.47-2.5-6.48-5.86-7.86a11.33,11.33,0,0,0-6.52-.54,1.91,1.91,0,0,0,1,3.69Z"/><path class="cls-47" d="M121.5,197.13a79.29,79.29,0,0,1,15.63,3.51s9.57,23-5.74,40.19l-10.12.61-10.7-6.93,4.23-30.68s6.76-.29,10.08.81Z"/><path class="cls-48" d="M114.8,203.83s6.76-.29,10.08.81l-.07-.17.52.31a84.33,84.33,0,0,1-3.66,36.64l-.4,0-10.7-6.93Z"/><polygon class="cls-52" points="134.23 47.72 135.85 83.42 149.28 85.24 143.51 46.56 134.23 47.72"/><path class="cls-16" d="M121.5,199l.38.05.47.06c-.54-.07,0,0,.2,0,1.25.18,2.49.38,3.74.61a67.15,67.15,0,0,1,10.34,2.69l-1.34-1.33a39.5,39.5,0,0,1,2.29,8.56l.15.94c0,.17,0,.33.07.49-.07-.47,0,.09,0,.16.09.75.16,1.5.22,2.25a46.17,46.17,0,0,1,.12,4.7,34.69,34.69,0,0,1-1.7,10A31.91,31.91,0,0,1,130,239.48l1.35-.56-10.12.61,1,.26-10.7-6.93.88,2.16,1.43-10.38,2.28-16.53.52-3.77-1.85,1.4c1.24-.05,2.47-.05,3.7,0s2.18.09,3.26.21a15.8,15.8,0,0,1,2.61.54,1.9,1.9,0,0,0,2-.68,2,2,0,0,0,.15-2.13l-3.38-7.51a1.93,1.93,0,0,0-2.62-.68,2,2,0,0,0-.69,2.61l3.38,7.52,2.16-2.82a24.73,24.73,0,0,0-6.69-.88c-1.3,0-2.6,0-3.9,0a1.93,1.93,0,0,0-1.84,1.41l-1.43,10.38-2.28,16.53-.53,3.77a2,2,0,0,0,.88,2.16l4.82,3.12c1.91,1.24,3.78,2.58,5.75,3.73a3.32,3.32,0,0,0,2.08.29l3.84-.24,4-.24,1.12-.06a2.9,2.9,0,0,0,2.13-1.27A37.62,37.62,0,0,0,142,217.57a48.53,48.53,0,0,0-2.56-16.2c-.14-.39-.28-.79-.43-1.18a2.61,2.61,0,0,0-1.86-1.58c-1.18-.41-2.37-.77-3.57-1.09a83.75,83.75,0,0,0-11.42-2.22l-.66-.09a1.92,1.92,0,0,0,0,3.83Z"/><path class="cls-16" d="M121.6,213.55l-8.16-.23a1.92,1.92,0,0,0-1.91,1.91,2,2,0,0,0,1.91,1.92l8.16.23a1.92,1.92,0,0,0,1.91-1.91,2,2,0,0,0-1.91-1.92Z"/><path class="cls-53" d="M110.33,22.32A217.34,217.34,0,0,0,133.68,42.6a40.74,40.74,0,0,0,6.64,20.55c3.9,5.78,7.4,9.56,13.34,13.22A21.91,21.91,0,0,1,150,68.32a10,10,0,0,0,9.26,1.83c-10.93-4.36-14.71-16.32-13.83-28.05,0,0-25.38-13.73-31.11-19.78-.94-1-2.6-2-3.46-.95l.75,1.69"/><path class="cls-16" d="M120.54,226.56q-3.6-2.28-7.39-4.22a1.91,1.91,0,0,0-1.93,3.3q3.8,2,7.39,4.23a1.92,1.92,0,0,0,1.93-3.31Z"/><path class="cls-43" d="M145.42,42.1S120,28.37,114.31,22.32c-.94-1-2.6-2-3.46-.95l.75,1.69-1.27-.74A217.34,217.34,0,0,0,133.68,42.6c0,.06,0,.11,0,.17l11.73-.64Z"/><path class="cls-54" d="M106.86,20.64a.39.39,0,0,0-.08-.1A4.45,4.45,0,0,1,108,14.2a4.76,4.76,0,0,1,6.32,1.71,5.11,5.11,0,0,1-1.49,6.49,4.4,4.4,0,0,1-4.39.48A3.34,3.34,0,0,1,106.63,19"/><path class="cls-55" d="M108.24,22.79a3.23,3.23,0,0,1-.46-1.37,4.49,4.49,0,0,1,1.44-5.94,4.71,4.71,0,0,1,4.94.24A4.77,4.77,0,0,0,108,14.2a4.5,4.5,0,0,0-1.45,5.95A3.49,3.49,0,0,0,108.24,22.79Z"/><path class="cls-17" d="M81.76,190.75h3.55A.94.94,0,0,1,86,192.3l-1.78,2.08a.94.94,0,0,1-1.43,0L81,192.3A.94.94,0,0,1,81.76,190.75Z"/></g></g></svg>